{
  "accessors": [
    {
      "bufferView": 2,
      "componentType": 5126,
      "count": 9076,
      "max": [
        12.770170211791992,
        13.595319747924805,
        12.634581565856934
      ],
      "min": [
        -11.757632255554199,
        -0.0847339928150177,
        -11.575787544250488
      ],
      "type": "VEC3"
    },
    {
      "bufferView": 2,
      "byteOffset": 108912,
      "componentType": 5126,
      "count": 9076,
      "max": [
        1,
        1,
        1
      ],
      "min": [
        -1,
        -1,
        -1
      ],
      "type": "VEC3"
    },
    {
      "bufferView": 3,
      "componentType": 5126,
      "count": 9076,
      "max": [
        1,
        1,
        1,
        1
      ],
      "min": [
        -1,
        -0.93597251176834106,
        -1,
        -1
      ],
      "type": "VEC4"
    },
    {
      "bufferView": 1,
      "componentType": 5126,
      "count": 9076,
      "max": [
        0.99673318862915039,
        0.3182867169380188
      ],
      "min": [
        0.75460159778594971,
        0.0039253812283277512
      ],
      "type": "VEC2"
    },
    {
      "bufferView": 1,
      "byteOffset": 72608,
      "componentType": 5126,
      "count": 9076,
      "max": [
        0.99673318862915039,
        0.3182867169380188
      ],
      "min": [
        0.75460159778594971,
        0.0039253812283277512
      ],
      "type": "VEC2"
    },
    {
      "bufferView": 1,
      "byteOffset": 145216,
      "componentType": 5126,
      "count": 9076,
      "max": [
        0.99673318862915039,
        0.3182867169380188
      ],
      "min": [
        0.75460159778594971,
        0.0039253812283277512
      ],
      "type": "VEC2"
    },
    {
      "bufferView": 1,
      "byteOffset": 217824,
      "componentType": 5126,
      "count": 9076,
      "max": [
        0.99673318862915039,
        0.3182867169380188
      ],
      "min": [
        0.75460159778594971,
        0.0039253812283277512
      ],
      "type": "VEC2"
    },
    {
      "bufferView": 1,
      "byteOffset": 290432,
      "componentType": 5126,
      "count": 9076,
      "max": [
        0.99673318862915039,
        0.3182867169380188
      ],
      "min": [
        0.75460159778594971,
        0.0039253812283277512
      ],
      "type": "VEC2"
    },
    {
      "bufferView": 0,
      "componentType": 5125,
      "count": 19194,
      "max": [
        9075
      ],
      "min": [
        0
      ],
      "type": "SCALAR"
    }
  ],
  "asset": {
    "extras": {
      "author": "arthurjrm (https://sketchfab.com/arthurjrm)",
      "license": "CC-BY-NC-SA-4.0 (http://creativecommons.org/licenses/by-nc-sa/4.0/)",
      "source": "https://sketchfab.com/3d-models/mansion-0c8431cc422f4adcaffe521d6ae2421c",
      "title": "Mansion"
    },
    "generator": "Sketchfab-7.4.0",
    "version": "2.0"
  },
  "bufferViews": [
    {
      "buffer": 0,
      "byteLength": 76776,
      "byteOffset": 0,
      "name": "floatBufferViews",
      "target": 34963
    },
    {
      "buffer": 0,
      "byteLength": 363040,
      "byteOffset": 76776,
      "byteStride": 8,
      "name": "floatBufferViews",
      "target": 34962
    },
    {
      "buffer": 0,
      "byteLength": 217824,
      "byteOffset": 439816,
      "byteStride": 12,
      "name": "floatBufferViews",
      "target": 34962
    },
    {
      "buffer": 0,
      "byteLength": 145216,
      "byteOffset": 657640,
      "byteStride": 16,
      "name": "floatBufferViews",
      "target": 34962
    }
  ],
  "buffers": [
    {
      "byteLength": 802856,
      "uri": "scene.bin"
    }
  ],
  "images": [
    {
      "uri": "textures/Atlas_Cidade_Fase1_baseColor.png"
    },
    {
      "uri": "textures/Atlas_Cidade_Fase1_metallicRoughness.png"
    },
    {
      "uri": "textures/Atlas_Cidade_Fase1_emissive.png"
    }
  ],
  "materials": [
    {
      "alphaMode": "BLEND",
      "doubleSided": true,
      "emissiveFactor": [
        1,
        1,
        1
      ],
      "emissiveTexture": {
        "index": 2,
        "texCoord": 0
      },
      "name": "Atlas_Cidade_Fase1",
      "pbrMetallicRoughness": {
        "baseColorFactor": [
          1,
          1,
          1,
          1
        ],
        "baseColorTexture": {
          "index": 0,
          "texCoord": 0
        },
        "metallicFactor": 1,
        "metallicRoughnessTexture": {
          "index": 1,
          "texCoord": 0
        },
        "roughnessFactor": 1
      }
    }
  ],
  "meshes": [
    {
      "primitives": [
        {
          "attributes": {
            "NORMAL": 1,
            "POSITION": 0,
            "TANGENT": 2,
            "TEXCOORD_0": 3,
            "TEXCOORD_1": 4,
            "TEXCOORD_2": 5,
            "TEXCOORD_3": 6,
            "TEXCOORD_4": 7
          },
          "indices": 8,
          "material": 0,
          "mode": 4
        }
      ]
    }
  ],
  "nodes": [
    {
      "children": [
        1
      ],
      "name": "RootNode (gltf orientation matrix)",
      "rotation": [
        -0.70710678118654746,
        -0,
        -0,
        0.70710678118654757
      ]
    },
    {
      "children": [
        2
      ],
      "name": "RootNode (model correction matrix)"
    },
    {
      "children": [
        3
      ],
      "name": "root"
    },
    {
      "children": [
        4
      ],
      "matrix": [
        1,
        0,
        0,
        0,
        0,
        2.2204460492503131e-16,
        1,
        0,
        0,
        -1,
        2.2204460492503131e-16,
        0,
        0,
        0,
        0,
        1
      ],
      "name": "GLTF_SceneRootNode"
    },
    {
      "children": [
        5
      ],
      "matrix": [
        1,
        0,
        0,
        0,
        0,
        1,
        0,
        0,
        0,
        0,
        1,
        0,
        1.2430108785629272,
        0,
        0.3659045398235321,
        1
      ],
      "name": "Loja_Grande_0"
    },
    {
      "mesh": 0,
      "name": ""
    }
  ],
  "samplers": [
    {
      "magFilter": 9729,
      "minFilter": 9987,
      "wrapS": 10497,
      "wrapT": 10497
    }
  ],
  "scene": 0,
  "scenes": [
    {
      "name": "OSG_Scene",
      "nodes": [
        0
      ]
    }
  ],
  "textures": [
    {
      "sampler": 0,
      "source": 0
    },
    {
      "sampler": 0,
      "source": 1
    },
    {
      "sampler": 0,
      "source": 2
    }
  ]
}

